<svg width="42" height="42" viewBox="0 0 42 42" fill="none" xmlns="http://www.w3.org/2000/svg">
<path d="M12.3999 24.4541C12.2388 24.4541 12.1582 24.3882 12.1582 24.2563V23.896C12.1582 23.7642 12.2388 23.6982 12.3999 23.6982H17.0493C17.2104 23.6982 17.291 23.7642 17.291 23.896V24.2563C17.291 24.3882 17.2104 24.4541 17.0493 24.4541H15.1465V29.7583C15.1465 29.9194 15.0732 30 14.9268 30H14.5225C14.376 30 14.3027 29.9194 14.3027 29.7583V24.4541H12.3999ZM17.8535 26.8491C17.8535 25.8237 18.1055 25.021 18.6094 24.4409C19.1162 23.8579 19.8457 23.5664 20.7979 23.5664C21.75 23.5664 22.478 23.8579 22.9819 24.4409C23.4888 25.021 23.7422 25.8237 23.7422 26.8491C23.7422 27.8745 23.4888 28.6787 22.9819 29.2617C22.478 29.8418 21.75 30.1318 20.7979 30.1318C19.8457 30.1318 19.1162 29.8418 18.6094 29.2617C18.1055 28.6787 17.8535 27.8745 17.8535 26.8491ZM18.7544 26.8491C18.7544 27.6694 18.9229 28.3081 19.2598 28.7651C19.5967 29.2192 20.1094 29.4463 20.7979 29.4463C21.4863 29.4463 21.999 29.2192 22.3359 28.7651C22.6729 28.3081 22.8413 27.6694 22.8413 26.8491C22.8413 26.0288 22.6729 25.3916 22.3359 24.9375C21.999 24.4805 21.4863 24.252 20.7979 24.252C20.1094 24.252 19.5967 24.4805 19.2598 24.9375C18.9229 25.3916 18.7544 26.0288 18.7544 26.8491ZM25.1133 30C24.9668 30 24.8936 29.9194 24.8936 29.7583V23.9399C24.8936 23.7788 24.9668 23.6982 25.1133 23.6982H26.959C27.9551 23.6982 28.6274 23.8667 28.9761 24.2036C29.3247 24.5376 29.499 24.9976 29.499 25.5835C29.499 26.1694 29.3247 26.6309 28.9761 26.9678C28.6274 27.3018 27.9551 27.4688 26.959 27.4688H25.7373V29.7583C25.7373 29.9194 25.6641 30 25.5176 30H25.1133ZM25.7373 26.748H26.9722C27.6167 26.748 28.0562 26.6572 28.2905 26.4756C28.5249 26.291 28.6421 25.9937 28.6421 25.5835C28.6421 25.1733 28.5249 24.8774 28.2905 24.6958C28.0562 24.5112 27.6167 24.4189 26.9722 24.4189H25.7373V26.748Z" fill="black"/>
<path d="M21 38.5C30.665 38.5 38.5 30.665 38.5 21C38.5 11.335 30.665 3.5 21 3.5C11.335 3.5 3.5 11.335 3.5 21C3.5 30.665 11.335 38.5 21 38.5Z" stroke="black" stroke-width="2"/>
<path d="M14 17.625L21 10.625L28 17.625" stroke="black" stroke-width="2" stroke-linecap="round" stroke-linejoin="round"/>
</svg>
